<svg xmlns="http://www.w3.org/2000/svg" xmlns:xlink="http://www.w3.org/1999/xlink" version="1.1" id="Livello_1" x="0px" y="0px" viewBox="0 0 256.1 85.3" style="enable-background:new 0 0 256.1 85.3;" xml:space="preserve">
<style type="text/css">
	.st0{fill:#f0f6f7;}
</style>
<g>
	<path class="st0" d="M63.4,15c-2.3,2.5-3.4,5.6-3.4,9.3c0,1.8,0.7,3.7,2.2,5.6c1.5,1.9,2.2,3.3,2.2,4c0,1.4-0.8,3.1-2.3,5.2   c-1.5,2-2.2,4.1-2.2,6.2c0,4.8,1.5,8.7,4.4,11.7c2.9,3,6.8,4.6,11.5,4.6h26.9v-9H77.3c-1.9,0-3.6-0.5-5-1.4   C70.7,50,70,48.5,70,46.6c0-1.5,0.5-3.1,1.5-4.8c1.2-1.9,2.4-2.9,3.8-2.9h27.4v-9.4H74.9c-1.3,0-2.5-0.5-3.5-1.4   c-1-1-1.4-2.1-1.4-3.4c0-3.3,2-4.9,5.9-4.9h26.9v-8.8H72.2C68.6,11.1,65.7,12.4,63.4,15z" fill="#FA6900"/>
	<polygon class="st0" points="105.9,19.8 122.4,19.8 122.4,61.7 132.5,61.7 132.5,19.8 149.7,19.8 149.7,11.1 105.9,11.1  " fill="#FA6900"/>
	<path class="st0" d="M155.8,15c-2.3,2.5-3.4,5.6-3.4,9.3c0,1.8,0.7,3.7,2.2,5.6c1.5,1.9,2.2,3.3,2.2,4c0,1.4-0.8,3.1-2.3,5.2   c-1.5,2-2.2,4.1-2.2,6.2c0,4.8,1.5,8.7,4.4,11.7c2.9,3,6.8,4.6,11.5,4.6h26.9v-9h-25.4c-1.9,0-3.6-0.5-5-1.4   c-1.6-1.1-2.4-2.6-2.4-4.5c0-1.5,0.5-3.1,1.5-4.8c1.2-1.9,2.4-2.9,3.8-2.9h27.4v-9.4h-27.8c-1.3,0-2.5-0.5-3.5-1.4   c-1-1-1.4-2.1-1.4-3.4c0-3.3,2-4.9,5.9-4.9h26.9v-8.8h-30.5C161,11.1,158.1,12.4,155.8,15z" fill="#FA6900"/>
	<path class="st0" d="M243.1,41.6c-1.3-1-1.9-1.9-1.9-2.8c0-0.9,0.6-2,1.9-3.2c2-1.9,3.3-3.1,3.7-3.7c1.3-1.7,1.9-3.6,1.9-5.6   c0-3.8-1.5-7.2-4.6-10.4c-3-3.3-6.4-4.9-10.1-4.9H198l10.5,10.5h22.4c1.7,0,3.1,0.5,4.4,1.4c1.3,0.9,2,2.2,2,3.8   c0,4.7-3.8,6.4-11.5,6.4c-0.8,0-3.6,0-6.2,0V33h-11.3v28.1h11.3V44c5.8,0,9.1,0.1,10,0.1c3.4,0.3,5.6,1,6.6,2.3   c1.1,1.3,1.6,3.8,1.6,7.5c0,1.1-0.1,4.1-0.3,9c-0.2,4.9-0.3,9.3-0.3,13.3h11.4V48.8c0-1.7-0.7-3.1-2-4.4   C246.6,44.2,245.4,43.3,243.1,41.6z" fill="#FA6900"/>
	<path class="st0" d="M219.2,67.9c-0.2,0-1.3,0-3.4,0v-1.4h2.7v-2.9H216c-1,0-1.8,0.4-2.4,1.1c-0.6,0.7-1,1.6-1,2.6   c0,1.5,0.7,2.4,2,2.8c0.1,0,1.4,0.1,3.8,0.3c1.4,0.1,2,0.6,2,1.4c0,0.4-0.2,0.7-0.5,1c-0.3,0.2-0.7,0.4-1.1,0.4h-6.6v2.7h7.1   c1.1,0,2-0.4,2.8-1.2c0.8-0.8,1.2-1.7,1.2-2.8c0-1.4-0.4-2.4-1.3-3.1C221.5,68.3,220.5,68,219.2,67.9z" fill="#FA6900"/>
	<path class="st0" d="M225.7,67.4c-0.9,0.8-1.3,1.9-1.3,3.1v5.2h2.8c0-0.5,0-1.1,0-1.9c0-0.8,0-1.3,0-1.5c0-1.2,0.1-2,0.3-2.4   c0.2-0.4,0.7-0.7,1.5-0.9c0.6-0.1,1.8-0.1,3.7-0.1v-2.7h-3.8C227.7,66.2,226.6,66.6,225.7,67.4z" fill="#FA6900"/>
	<rect x="233.6" y="63.2" class="st0" width="2.9" height="12.5" fill="#FA6900"/>
	<path class="st0" d="M33.2,14.3c-4.4,0-8.5,1.3-11.9,3.6h-8.2l3.9,3.9c-3.2,3.7-5.1,8.5-5.1,13.8c0,11.7,9.5,21.2,21.2,21.2   c1.7,0,3.3-0.2,4.9-0.6c0,1,0,2.1,0,3h7.2v-6l-7.2,2.9c0-2.5,0.1-2.2,0.2-5.3c0.1-3.1,0.2-5,0.2-5.7c0-2.4-0.3-3.9-1-4.7   c-0.7-0.8-2.1-1.3-4.2-1.4c-0.7-0.1-3.9-0.1-9.5-0.1v-6.9c0.4,0,1.4,0.1,3,0.2c1.6,0.1,3,0.2,4,0.2c4.9,0,7.3-1.5,7.3-4.5   c0-1-0.4-1.8-1.3-2.4c-0.8-0.6-1.7-0.9-2.8-0.9H19.9l-2.9-3l4-3.7l14.9,0c2.3,0,4.5,1,6.4,3.1c2,2,2.9,4.2,2.9,6.6   c0,1.3-0.4,2.5-1.2,3.6c-0.3,0.3-1,1.1-2.3,2.3c-0.8,0.8-1.2,1.4-1.2,2c0,0.6,0.4,1.2,1.2,1.8c1.4,1.1,2.2,1.6,2.3,1.7   c0.8,0.8,1.3,1.7,1.3,2.8V53c5.5-3.8,9.2-10.2,9.2-17.5C54.5,23.8,45,14.3,33.2,14.3z" fill="#FA6900"/>
</g>
</svg>